<svg xmlns="http://www.w3.org/2000/svg" version="1.1" width="32px" height="32px" style="shape-rendering:geometricPrecision; text-rendering:geometricPrecision; image-rendering:optimizeQuality; fill-rule:evenodd; clip-rule:evenodd" xmlns:xlink="http://www.w3.org/1999/xlink">
<g><path style="opacity:1" fill="#1d1920" d="M -0.5,-0.5 C 10.1667,-0.5 20.8333,-0.5 31.5,-0.5C 31.5,10.1667 31.5,20.8333 31.5,31.5C 20.8333,31.5 10.1667,31.5 -0.5,31.5C -0.5,20.8333 -0.5,10.1667 -0.5,-0.5 Z"/></g>
<g><path style="opacity:1" fill="#c497ea" d="M 24.5,10.5 C 21.878,8.35648 18.878,7.02315 15.5,6.5C 16.1742,1.84855 18.8408,0.34855 23.5,2C 27.0294,4.57711 27.3627,7.41045 24.5,10.5 Z"/></g>
<g><path style="opacity:1" fill="#bc68b1" d="M 15.5,6.5 C 18.878,7.02315 21.878,8.35648 24.5,10.5C 24.5,10.8333 24.5,11.1667 24.5,11.5C 22.1432,11.6633 19.8098,11.4966 17.5,11C 15.9632,9.89037 15.2965,8.39037 15.5,6.5 Z"/></g>
<g><path style="opacity:1" fill="#eeb5c5" d="M 15.5,6.5 C 15.2965,8.39037 15.9632,9.89037 17.5,11C 19.8098,11.4966 22.1432,11.6633 24.5,11.5C 25.1408,12.4822 25.8075,13.4822 26.5,14.5C 23.4137,16.0418 20.747,15.5418 18.5,13C 11.2566,11.9019 8.75657,14.7352 11,21.5C 14.0598,24.3168 16.8931,24.1501 19.5,21C 21.4727,20.5045 23.4727,20.3379 25.5,20.5C 23.0919,27.7051 18.0919,30.2051 10.5,28C 2.952,21.6377 2.61866,14.971 9.5,8C 11.3453,6.87201 13.3453,6.37201 15.5,6.5 Z"/></g>
</svg>
