<svg xmlns="http://www.w3.org/2000/svg" width="24" height="24">
    <path fill="#292529"
          d="M10.722.69a2.69 2.69 0 0 1 2.556 0 2.689 2.689 0 0 0 1.616.303 2.687 2.687 0 0 1 2.383.923c.364.427.853.73 1.397.865.88.219 1.59.866 1.89 1.722.185.53.531.989.99 1.312a2.689 2.689 0 0 1 1.14 2.288 2.67 2.67 0 0 0 .45 1.58c.502.755.59 1.712.235 2.546a2.689 2.689 0 0 0-.152 1.637 2.689 2.689 0 0 1-.7 2.458 2.689 2.689 0 0 0-.732 1.471 2.689 2.689 0 0 1-1.54 2.04c-.51.234-.935.62-1.215 1.108a2.689 2.689 0 0 1-2.173 1.345 2.692 2.692 0 0 0-1.533.594c-.704.57-1.65.747-2.512.47a2.689 2.689 0 0 0-1.644 0 2.69 2.69 0 0 1-2.513-.47 2.689 2.689 0 0 0-1.532-.594 2.689 2.689 0 0 1-2.173-1.345 2.689 2.689 0 0 0-1.215-1.108 2.689 2.689 0 0 1-1.54-2.04 2.69 2.69 0 0 0-.733-1.47 2.689 2.689 0 0 1-.7-2.46 2.689 2.689 0 0 0-.151-1.636 2.689 2.689 0 0 1 .236-2.545c.311-.467.468-1.02.45-1.58a2.689 2.689 0 0 1 1.139-2.29c.459-.322.805-.78.99-1.31a2.689 2.689 0 0 1 1.89-1.723 2.689 2.689 0 0 0 1.397-.865A2.689 2.689 0 0 1 9.106.993 2.689 2.689 0 0 0 10.722.69Z"/>
    <path fill="#393939" fill-rule="evenodd"
          d="M12.022 22.523c5.788 0 10.48-4.692 10.48-10.48 0-5.789-4.692-10.48-10.48-10.48s-10.48 4.691-10.48 10.48c0 5.788 4.692 10.48 10.48 10.48Zm0 .196c5.896 0 10.676-4.78 10.676-10.676 0-5.897-4.78-10.677-10.676-10.677S1.346 6.146 1.346 12.043c0 5.896 4.78 10.676 10.676 10.676Z"
          clip-rule="evenodd"/>
    <path fill="#FFB0C2"
          d="M14.427 14.44a3.16 3.16 0 0 1-2.796 1.694 3.17 3.17 0 0 1-3.164-3.176 3.17 3.17 0 0 1 3.163-3.176 3.16 3.16 0 0 1 2.797 1.693h3.294c-.661-2.765-3.133-4.823-6.09-4.823-3.463 0-6.27 2.818-6.27 6.293 0 3.476 2.807 6.294 6.27 6.294 2.948 0 5.414-2.046 6.084-4.798h-3.288Z"/>
    <path fill="#CC91F0"
          d="M16.586 9.108a3.156 3.156 0 0 0 1.158-2.448A3.152 3.152 0 0 0 14.6 3.502a3.152 3.152 0 0 0-3.146 3.158v.002l.176-.002c2.019 0 3.812.959 4.957 2.448Z"/>
    <path fill="#CC66B8"
          d="M14.602 9.82a3.12 3.12 0 0 0 1.987-.709 6.236 6.236 0 0 0-5.132-2.445 3.15 3.15 0 0 0 3.145 3.155Z"/>
</svg>