<?xml version="1.0" encoding="UTF-8"?>
<!DOCTYPE svg PUBLIC "-//W3C//DTD SVG 1.1//EN" "http://www.w3.org/Graphics/SVG/1.1/DTD/svg11.dtd">
<svg xmlns="http://www.w3.org/2000/svg" version="1.1" width="1000px" height="1000px" style="shape-rendering:geometricPrecision; text-rendering:geometricPrecision; image-rendering:optimizeQuality; fill-rule:evenodd; clip-rule:evenodd" xmlns:xlink="http://www.w3.org/1999/xlink">
<g><path style="opacity:0.999" fill="#1f1a23" d="M 129.5,29.5 C 375.834,29.3333 622.167,29.5 868.5,30C 921.796,39.2947 955.296,70.128 969,122.5C 969.912,126.795 970.579,131.128 971,135.5C 971.667,379.833 971.667,624.167 971,868.5C 963.376,920.588 934.543,954.755 884.5,971C 879.239,972.385 873.906,973.385 868.5,974C 621.833,974.667 375.167,974.667 128.5,974C 76.9659,965.15 43.7992,935.65 29,885.5C 27.4828,879.248 26.4828,872.914 26,866.5C 25.3333,623.5 25.3333,380.5 26,137.5C 34.8881,76.7816 69.3881,40.7816 129.5,29.5 Z"/></g>
<g><path style="opacity:1" fill="#ca8de8" d="M 687.5,358.5 C 638.071,297.293 573.738,266.959 494.5,267.5C 496.321,216.344 520.321,179.844 566.5,158C 609.074,142.321 648.741,147.654 685.5,174C 727.846,210.728 740.346,255.895 723,309.5C 715.203,328.791 703.37,345.124 687.5,358.5 Z"/></g>
<g><path style="opacity:1" fill="#feafc1" d="M 494.5,267.5 C 497.487,324.304 525.82,362.137 579.5,381C 619.03,390.927 655.03,383.761 687.5,359.5C 707.889,385.617 721.889,414.95 729.5,447.5C 688.165,447.667 646.832,447.5 605.5,447C 581.998,406.405 546.665,385.572 499.5,384.5C 443.419,388.286 405.919,416.619 387,469.5C 375.306,518.408 387.806,559.908 424.5,594C 463.882,624.7 506.548,630.033 552.5,610C 575.395,598.439 593.061,581.439 605.5,559C 646.833,558.333 688.167,558.333 729.5,559C 702.315,653.184 640.982,711.517 545.5,734C 458.625,748.043 385.125,723.209 325,659.5C 268.213,591.242 252.213,514.242 277,428.5C 304.98,351.854 357.813,301.02 435.5,276C 454.753,270.302 474.42,267.468 494.5,267.5 Z"/></g>
<g><path style="opacity:1" fill="#cb65b7" d="M 494.5,267.5 C 573.738,266.959 638.071,297.293 687.5,358.5C 687.5,358.833 687.5,359.167 687.5,359.5C 655.03,383.761 619.03,390.927 579.5,381C 525.82,362.137 497.487,324.304 494.5,267.5 Z"/></g>
</svg>
